<svg xmlns="http://www.w3.org/2000/svg" data-name="Layer 1" viewBox="0 0 100 125" x="0px" y="0px"><defs><style>.cls-1{fill-rule:evenodd;}</style></defs><path class="cls-1" d="M21.627,64.195V11.081A6.094,6.094,0,0,1,27.708,5H89.169A5.844,5.844,0,0,1,95,10.831V72.293a6.1,6.1,0,0,1-6.081,6.081H68.076a18.143,18.143,0,0,1-27.66,13.89c-3.493,2.162-11.9,2.67-16.937,2.67a64.5,64.5,0,0,1-12.3-1.051C7.362,93.1,5,91.732,5,89.955v-20.8C5,67.365,7.392,66,11.181,65.225a61.047,61.047,0,0,1,10.446-1.03Zm34.789,9.214a4.509,4.509,0,0,0-2.08-3.675,7.187,7.187,0,0,0-2.824-1.152V67.137a1.513,1.513,0,1,0-3.025,0v1.445a7.189,7.189,0,0,0-2.823,1.152,4.509,4.509,0,0,0-2.08,3.675c0,3.892,3.084,4.416,6.168,4.941,1.819.309,3.639.619,3.639,1.963a1.588,1.588,0,0,1-.792,1.2,4.968,4.968,0,0,1-5.2,0,1.588,1.588,0,0,1-.792-1.2,1.513,1.513,0,1,0-3.025,0,4.509,4.509,0,0,0,2.08,3.675,7.173,7.173,0,0,0,2.823,1.151v1.446a1.513,1.513,0,0,0,3.025,0V85.139a7.171,7.171,0,0,0,2.824-1.151,4.509,4.509,0,0,0,2.08-3.675c0-3.892-3.084-4.416-6.168-4.941-1.819-.309-3.639-.619-3.639-1.963A1.592,1.592,0,0,1,47.4,72.2a4.974,4.974,0,0,1,5.2,0,1.592,1.592,0,0,1,.792,1.206,1.513,1.513,0,1,0,3.025,0Zm11.66,1.939H88.919a3.068,3.068,0,0,0,3.056-3.055V10.831a2.819,2.819,0,0,0-2.806-2.806H27.708a3.069,3.069,0,0,0-3.056,3.056v53.1a62.793,62.793,0,0,1,11.389,1.095,18.139,18.139,0,0,1,32.035,10.07Zm-33.9-7.355a71.147,71.147,0,0,0-22.39.187,15.691,15.691,0,0,0-3.758.974,15.634,15.634,0,0,0,3.758.974,71.764,71.764,0,0,0,21.225.371,18.129,18.129,0,0,1,1.165-2.506Zm-2.03,5.662a74.1,74.1,0,0,1-20.962-.572,18.3,18.3,0,0,1-3.156-.912v3.917a15.749,15.749,0,0,0,3.758.974,71.789,71.789,0,0,0,20.092.518,18.316,18.316,0,0,1,.268-3.925Zm.1,6.923a74.186,74.186,0,0,1-21.062-.562,18.219,18.219,0,0,1-3.156-.911v3.916A15.634,15.634,0,0,0,11.783,84a71.53,71.53,0,0,0,21.668.3,18.024,18.024,0,0,1-1.208-3.72Zm2.781,6.52a73.28,73.28,0,0,1-23.843-.148,18.278,18.278,0,0,1-3.156-.912v3.917a15.749,15.749,0,0,0,3.758.974,71.076,71.076,0,0,0,22.662.141,25.3,25.3,0,0,0,3.348-.792,18.249,18.249,0,0,1-2.769-3.18ZM50,61.747A15.114,15.114,0,1,0,65.114,76.861,15.114,15.114,0,0,0,50,61.747ZM73.84,30.315a1.512,1.512,0,0,0-1.513,1.512V38.12a1.512,1.512,0,0,0,1.513,1.513h6.293a1.512,1.512,0,0,0,1.512-1.513V31.827a1.512,1.512,0,0,0-1.512-1.512Zm4.78,3.025H75.352v3.268H78.62V33.34ZM55.167,43.348a1.512,1.512,0,0,0-1.513,1.512v6.293a1.512,1.512,0,0,0,1.513,1.513H61.46a1.513,1.513,0,0,0,1.513-1.513V44.86a1.513,1.513,0,0,0-1.513-1.512Zm4.78,3.025H56.679v3.268h3.268V46.373ZM36.494,43.348a1.512,1.512,0,0,0-1.513,1.512v6.293a1.512,1.512,0,0,0,1.513,1.513h6.293A1.513,1.513,0,0,0,44.3,51.153V44.86a1.513,1.513,0,0,0-1.513-1.512Zm4.78,3.025H38.006v3.268h3.268V46.373ZM55.167,30.315a1.512,1.512,0,0,0-1.513,1.512V38.12a1.512,1.512,0,0,0,1.513,1.513H61.46a1.513,1.513,0,0,0,1.513-1.513V31.827a1.513,1.513,0,0,0-1.513-1.512Zm4.78,3.025H56.679v3.268h3.268V33.34ZM36.494,30.315a1.512,1.512,0,0,0-1.513,1.512V38.12a1.512,1.512,0,0,0,1.513,1.513h6.293A1.513,1.513,0,0,0,44.3,38.12V31.827a1.513,1.513,0,0,0-1.513-1.512Zm4.78,3.025H38.006v3.268h3.268V33.34ZM73.84,43.348a1.512,1.512,0,0,0-1.513,1.512v6.293a1.512,1.512,0,0,0,1.513,1.513h6.293a1.512,1.512,0,0,0,1.512-1.513V44.86a1.512,1.512,0,0,0-1.512-1.512Zm4.78,3.025H75.352v3.268H78.62V46.373ZM73.84,56.38a1.513,1.513,0,0,0-1.513,1.513V68.615a1.513,1.513,0,0,0,1.513,1.513h6.293a1.513,1.513,0,0,0,1.512-1.513V57.893a1.513,1.513,0,0,0-1.512-1.513Zm4.78,3.026H75.352v7.7H78.62v-7.7ZM33.347,13.246a1.513,1.513,0,0,0-1.513,1.513V25.534a1.513,1.513,0,0,0,1.513,1.512H83.28a1.512,1.512,0,0,0,1.512-1.512V14.759a1.512,1.512,0,0,0-1.512-1.513Zm48.42,3.025H34.86v7.75H81.767Z"/><text x="0" y="115" fill="#000000" font-size="5px" font-weight="bold" font-family="'Helvetica Neue', Helvetica, Arial-Unicode, Arial, Sans-serif">Created by heri kusyanto</text><text x="0" y="120" fill="#000000" font-size="5px" font-weight="bold" font-family="'Helvetica Neue', Helvetica, Arial-Unicode, Arial, Sans-serif">from the Noun Project</text></svg>